<mxfile host="65bd71144e">
    <diagram id="NQbdevP67i4PQxkOO86s" name="Page-1">
        <mxGraphModel dx="594" dy="561" grid="1" gridSize="10" guides="1" tooltips="1" connect="1" arrows="1" fold="1" page="1" pageScale="1" pageWidth="827" pageHeight="1169" math="0" shadow="0">
            <root>
                <mxCell id="0"/>
                <mxCell id="1" parent="0"/>
                <mxCell id="119" value="" style="pointerEvents=1;verticalLabelPosition=bottom;shadow=0;dashed=0;align=center;html=1;verticalAlign=top;shape=mxgraph.electrical.miscellaneous.batteryStack;" parent="1" vertex="1">
                    <mxGeometry x="70" y="50" width="100" height="60" as="geometry"/>
                </mxCell>
                <mxCell id="120" value="&lt;font style=&quot;font-size: 18px&quot;&gt;-&lt;/font&gt;" style="text;html=1;resizable=0;autosize=1;align=center;verticalAlign=middle;points=[];fillColor=none;strokeColor=none;rounded=0;fontFamily=Helvetica;fontSize=11;fontColor=default;" parent="1" vertex="1">
                    <mxGeometry x="50" y="50" width="20" height="20" as="geometry"/>
                </mxCell>
                <mxCell id="121" value="&lt;font style=&quot;font-size: 18px&quot;&gt;+&lt;/font&gt;" style="text;html=1;resizable=0;autosize=1;align=center;verticalAlign=middle;points=[];fillColor=none;strokeColor=none;rounded=0;fontFamily=Helvetica;fontSize=11;fontColor=default;" parent="1" vertex="1">
                    <mxGeometry x="160" y="50" width="30" height="20" as="geometry"/>
                </mxCell>
                <mxCell id="122" value="&lt;font style=&quot;font-size: 18px&quot;&gt;5 V&lt;br&gt;&lt;/font&gt;" style="text;html=1;resizable=0;autosize=1;align=center;verticalAlign=middle;points=[];fillColor=none;strokeColor=none;rounded=0;fontFamily=Helvetica;fontSize=11;fontColor=default;" parent="1" vertex="1">
                    <mxGeometry x="100" y="20" width="40" height="20" as="geometry"/>
                </mxCell>
                <mxCell id="123" value="&lt;font style=&quot;font-size: 18px&quot;&gt;220&amp;nbsp;&lt;/font&gt;&lt;span style=&quot;color: rgb(32 , 33 , 36) ; font-family: &amp;#34;arial&amp;#34; , sans-serif ; font-size: 16px ; text-align: left ; background-color: rgb(255 , 255 , 255)&quot;&gt;Î©&lt;/span&gt;" style="text;html=1;resizable=0;autosize=1;align=center;verticalAlign=middle;points=[];fillColor=none;strokeColor=none;rounded=0;fontFamily=Helvetica;fontSize=11;fontColor=default;" parent="1" vertex="1">
                    <mxGeometry x="195" y="380" width="60" height="20" as="geometry"/>
                </mxCell>
                <mxCell id="124" style="edgeStyle=orthogonalEdgeStyle;rounded=0;orthogonalLoop=1;jettySize=auto;html=1;exitX=1;exitY=0.115;exitDx=0;exitDy=0;exitPerimeter=0;endArrow=none;endFill=0;fillColor=#f8cecc;strokeColor=#b85450;" parent="1" source="126" edge="1">
                    <mxGeometry relative="1" as="geometry">
                        <mxPoint x="180" y="80" as="targetPoint"/>
                    </mxGeometry>
                </mxCell>
                <mxCell id="125" style="edgeStyle=none;html=1;exitX=0;exitY=0.885;exitDx=0;exitDy=0;exitPerimeter=0;entryX=0;entryY=0.25;entryDx=0;entryDy=0;entryPerimeter=0;endArrow=none;endFill=0;" parent="1" source="126" edge="1">
                    <mxGeometry relative="1" as="geometry">
                        <mxPoint x="334" y="175" as="targetPoint"/>
                    </mxGeometry>
                </mxCell>
                <mxCell id="126" value="" style="pointerEvents=1;verticalLabelPosition=bottom;shadow=0;dashed=0;align=center;html=1;verticalAlign=top;shape=mxgraph.electrical.electro-mechanical.2-way_switch;rotation=-180;" parent="1" vertex="1">
                    <mxGeometry x="205" y="117" width="75" height="26" as="geometry"/>
                </mxCell>
                <mxCell id="127" value="Switch&lt;br&gt;" style="text;html=1;resizable=0;autosize=1;align=center;verticalAlign=middle;points=[];fillColor=none;strokeColor=none;rounded=0;" parent="1" vertex="1">
                    <mxGeometry x="182.5" y="150" width="50" height="20" as="geometry"/>
                </mxCell>
                <mxCell id="128" value="rr" style="verticalLabelPosition=bottom;shadow=0;dashed=0;align=center;html=1;verticalAlign=top;shape=mxgraph.electrical.opto_electronics.led_2;pointerEvents=1;flipH=1;rotation=0;" parent="1" vertex="1">
                    <mxGeometry x="334" y="325" width="100" height="70" as="geometry"/>
                </mxCell>
                <mxCell id="129" value="Output&lt;br style=&quot;font-size: 18px;&quot;&gt;" style="text;html=1;resizable=0;autosize=1;align=center;verticalAlign=middle;points=[];fillColor=none;strokeColor=none;rounded=0;fontSize=18;" parent="1" vertex="1">
                    <mxGeometry x="344" y="420" width="70" height="30" as="geometry"/>
                </mxCell>
                <mxCell id="130" value="Input A" style="text;html=1;resizable=0;autosize=1;align=center;verticalAlign=middle;points=[];fillColor=none;strokeColor=none;rounded=0;fontSize=18;" parent="1" vertex="1">
                    <mxGeometry x="230" y="80" width="70" height="30" as="geometry"/>
                </mxCell>
                <mxCell id="131" value="Emmanuel&amp;nbsp;&lt;br&gt;TEJ3M&lt;br&gt;Unit #4-12&lt;br&gt;" style="text;html=1;resizable=0;autosize=1;align=center;verticalAlign=middle;points=[];fillColor=none;strokeColor=none;rounded=0;fontSize=18;" parent="1" vertex="1">
                    <mxGeometry x="460" y="310" width="110" height="70" as="geometry"/>
                </mxCell>
                <mxCell id="132" style="edgeStyle=orthogonalEdgeStyle;rounded=0;orthogonalLoop=1;jettySize=auto;html=1;exitX=1;exitY=0.115;exitDx=0;exitDy=0;exitPerimeter=0;endArrow=none;endFill=0;fillColor=#f8cecc;strokeColor=#b85450;" parent="1" source="136" edge="1">
                    <mxGeometry relative="1" as="geometry">
                        <mxPoint x="182" y="80" as="targetPoint"/>
                        <Array as="points">
                            <mxPoint x="165" y="265"/>
                            <mxPoint x="165" y="80"/>
                        </Array>
                    </mxGeometry>
                </mxCell>
                <mxCell id="133" style="edgeStyle=orthogonalEdgeStyle;rounded=0;orthogonalLoop=1;jettySize=auto;html=1;exitX=1;exitY=0.885;exitDx=0;exitDy=0;exitPerimeter=0;endArrow=none;endFill=0;entryX=1;entryY=0.885;entryDx=0;entryDy=0;entryPerimeter=0;" parent="1" source="136" target="126" edge="1">
                    <mxGeometry relative="1" as="geometry">
                        <mxPoint x="200" y="203" as="targetPoint"/>
                    </mxGeometry>
                </mxCell>
                <mxCell id="134" style="edgeStyle=orthogonalEdgeStyle;rounded=0;orthogonalLoop=1;jettySize=auto;html=1;exitX=1;exitY=0.885;exitDx=0;exitDy=0;exitPerimeter=0;endArrow=none;endFill=0;entryX=0;entryY=0.5;entryDx=0;entryDy=0;entryPerimeter=0;" parent="1" source="136" target="139" edge="1">
                    <mxGeometry relative="1" as="geometry">
                        <mxPoint x="170" y="365" as="targetPoint"/>
                        <Array as="points">
                            <mxPoint x="170" y="245"/>
                            <mxPoint x="170" y="365"/>
                        </Array>
                    </mxGeometry>
                </mxCell>
                <mxCell id="135" style="edgeStyle=none;html=1;exitX=0;exitY=0.885;exitDx=0;exitDy=0;exitPerimeter=0;entryX=0;entryY=0.75;entryDx=0;entryDy=0;entryPerimeter=0;endArrow=none;endFill=0;" parent="1" source="136" edge="1">
                    <mxGeometry relative="1" as="geometry">
                        <mxPoint x="334" y="205" as="targetPoint"/>
                    </mxGeometry>
                </mxCell>
                <mxCell id="136" value="" style="pointerEvents=1;verticalLabelPosition=bottom;shadow=0;dashed=0;align=center;html=1;verticalAlign=top;shape=mxgraph.electrical.electro-mechanical.2-way_switch;rotation=-180;" parent="1" vertex="1">
                    <mxGeometry x="232.5" y="242" width="75" height="26" as="geometry"/>
                </mxCell>
                <mxCell id="137" style="edgeStyle=orthogonalEdgeStyle;rounded=0;orthogonalLoop=1;jettySize=auto;html=1;entryX=0;entryY=0.5;entryDx=0;entryDy=0;endArrow=none;endFill=0;" parent="1" source="139" target="119" edge="1">
                    <mxGeometry relative="1" as="geometry"/>
                </mxCell>
                <mxCell id="138" style="edgeStyle=none;html=1;exitX=1;exitY=0.5;exitDx=0;exitDy=0;exitPerimeter=0;entryX=1;entryY=0.57;entryDx=0;entryDy=0;entryPerimeter=0;endArrow=none;endFill=0;" parent="1" source="139" target="128" edge="1">
                    <mxGeometry relative="1" as="geometry"/>
                </mxCell>
                <mxCell id="139" value="" style="pointerEvents=1;verticalLabelPosition=bottom;shadow=0;dashed=0;align=center;html=1;verticalAlign=top;shape=mxgraph.electrical.resistors.resistor_2;" parent="1" vertex="1">
                    <mxGeometry x="175" y="355" width="100" height="20" as="geometry"/>
                </mxCell>
                <mxCell id="140" value="Input B" style="text;html=1;resizable=0;autosize=1;align=center;verticalAlign=middle;points=[];fillColor=none;strokeColor=none;rounded=0;fontSize=18;" parent="1" vertex="1">
                    <mxGeometry x="237.5" y="205" width="70" height="30" as="geometry"/>
                </mxCell>
                <mxCell id="141" style="edgeStyle=none;html=1;exitX=1;exitY=0.5;exitDx=0;exitDy=0;exitPerimeter=0;entryX=0;entryY=0.57;entryDx=0;entryDy=0;entryPerimeter=0;endArrow=none;endFill=0;" parent="1" target="128" edge="1">
                    <mxGeometry relative="1" as="geometry">
                        <mxPoint x="434" y="190" as="sourcePoint"/>
                    </mxGeometry>
                </mxCell>
                <mxCell id="144" value="" style="verticalLabelPosition=bottom;shadow=0;dashed=0;align=center;html=1;verticalAlign=top;shape=mxgraph.electrical.logic_gates.logic_gate;operation=or;" vertex="1" parent="1">
                    <mxGeometry x="334" y="160" width="100" height="60" as="geometry"/>
                </mxCell>
                <mxCell id="145" value="" style="shape=image;verticalLabelPosition=bottom;labelBackgroundColor=#ffffff;verticalAlign=top;aspect=fixed;imageAspect=0;image=data:image/png,iVBORw0KGgoAAAANSUhEUgAAAPkAAADUCAIAAADRHxIvAAAgAElEQVR4nO2dWXQb133/ZwbLYN8XkgAIbiBBUqRAUpK12KIlO7YUW17lpYnt1CduTuLTnsZOe3raPvShifvSnJzkpG1aOzl1ndZrHUeyVTmSZUkmJYoSSRCixB0EiX3fgcEAg/k//P5GWVKbuYE05vMkEcDcO3e+c/ff/aI0TSMMDBUAVu4MMDBsEIzWGSoFRusMlQL7tt9wOp0bkA8GhjWBx+OpVCoURZd/hN52bGqxWNYnVwwMa8/OnTt/8Ytf8Pn85R/dvl4fHR09dOjQvn371iFjDAxrycmTJ+12e7FYvOGnt9c6giD333//j370ozXNFQPD2hONRq1W680+ZcamDJUCo3WGSoHROkOlwGidoVJgtM5QKTBaZ6gUGK0zVAqM1hkqBUbrDJXCHa2brpJcLhcOh0OhUCaTQVEUx3GVSqVWq7lcLoqixWKRJEmv1xuLxXK53OIfymQylUqlVCpvuJUHQZBCoZDNZp1OZyKRgL/weDyJRFJdXY3jOIbd6k2GdEOhEJvNVqlULBbrZqmsjGw2m0qlstmsRqOhKCqTyZAkKZPJcBzPZrOJRILL5SqVyptlkqbpQqEQCAQikUg6nV7yqUAgkMlkGo0Gx/G1zfZioIgikQiCIBqN5mZFRFEUPGIcxxUKxZqX5FqxEVr3+/0fffTRBx98MDExwWKxamtrn3jiiT/6oz+qrq7mcDgEQXi93l/96lenT592u92Lf3j//fc/8cQTjz32GJt943ym0+mpqamf/OQnFy5cgL8YjcZ77rnn5ZdfNhgMOI7fIleQ7u9+9zupVPrUU0+JRKKbpbIynE7n8PDw5OTk888/n0qlxsbGAoHAwYMHa2trp6am+vr6dDrdY489xuFwbij3YrEYiUTefffdEydO2Gy2JZ+2tLQ88MADzz33nMFgWNtsLwbqoOPHj2MY9u1vf1skEnE4nOVfy2azLpfrww8/1Ov1jz76qEgkYrFY65Sl1bCOWoeaaXh4eHR0NJFIPPPMM7D7rFAohEKhf//3f3/ooYcaGxu5XC5FURRFmc3mZ555Ri6XczicYrFIEMT8/PzY2Ni2bdv0er1IJFpyfYfDMTw8/Nlnn3V0dPT29kqlUgRBkslkOp0+ffr03r1729rabqEDmqYpikqn01wudz0CETUaTU9PT2Njo0qlSiaTBEFkMplCoVAsFvP5fCaTyeVyt0gXwzCJRHLw4MGmpiav1xuNRi9evJjL5Xp7e2UyWVVVlcFguEWzsCZwOBylUnnvvfeiKCoQCG6mYHjQ6XSaIIjNHNK5jlqnKCoWi42Pj8/NzW3btu2ee+6pra2F6urUqVN9fX2jo6NCoVCv1yMIwuFwmpqajh49qtPp+Hx+sVjMZrNvv/325OSkw+GQy+WLtQ6FOzExMTIykk6nH3300Z07d8rlcgRB5ubmhoaGzp8/r9Pp6uvrxWIx9ATsdnssFsvn8zwez2AwVFVVZbNZm802NzcXCoVGRkY6OztlMlkul3M4HD6fDzpF7e3tOp1OKBQuvq9oNBqPx3O5nE6nEwgE2Wx2enqaz+dXVVWJxeJsNhuLxYLBoFKp5HA4PB4vlUrNzs4ODw/HYrG6urpS1RiNRq9evRoIBLhcrkajaWpq4vP5Je2iKMrn8y0Wi8ViIQjC5XIRBJFOp5944gm9Xi8UCovFYjKZnJ6eDgaD+XxeIBCo1Wqj0RgOh10u1/z8PIIgPB5PqVSaTCaRSEQQhNvtht5UPB7PZDISiaSmpgaylEqlXC6Xy+VKpVJcLlev1+v1eplMxmKxeDweiqLQ2wyFQgsLC36/nyRJkUhkMpkUCkU4HL569erc3BxBEDabraOjg8fjxWKx6enpZDKJYZhcLjeZTDKZDEGQZDLp8/lCoVA+nxcKhWq1ura2FsOwDej2rKPWSZKcn5+Px+NqtfrIkSOgGAzDVCrV/v37pVLpmTNndDqdVqtd/lsMw+A1iMVioVBoST++WCymUqnr16+Hw+Hvfve7bW1tIHQEQaqqqsxm87lz5+LxeDweF4lEmUxmYGDgn//5n61Wazwe12g0zz777JEjR4rF4ptvvnnlyhUOhxMKhV555ZWWlpZAIPDWW2+dOHFifHycpum///u/f/LJJ00m0+InMT09bbPZvF7vM888U1tb6/P5/u3f/k2v13/zm99sa2vzer1DQ0Nnz57dt28fQRBjY2P79+8/fvz4f/zHfyAIkk6nE4lER0dHsVicmZmZmpr66KOPRCLRfffd9+qrr+r1eh6Pd4fFm8/n5+bmPv744zNnziQSifr6+oMHD77wwgujo6P/9V//9dvf/hZBEK1Wu3fv3r/8y79sbm72er3vv/9+JpNxOBxjY2MOh6O9vf3RRx/9kz/5E5lM5nK53nnnnXfeecdut8tksmefffaZZ57p6enxer0ffvghhmHf/e53uVzu8PDwW2+9derUqWg0ajKZ/vzP/3zPnj0ul+vNN98cGhoSi8WRSOSVV16RSqXDw8M//elPJycncRzv6el59dVXe3p62Gy23W4/duzY+fPnE4lEY2Pj/fff//zzz8PIbUUq+wqso9Zzudzk5CSbza6trV0yUuRyuTweLxKJ+P3+WCy2vOErFouZTMbpdHq9XqgnFn+az+e9Xm8qleLxeNAOLL6y0Wj8wQ9+IJPJZDIZSZJnzpyx2+0PPfTQyy+/TFGU2+22Wq0ej6e9vf2ll17SarVisfjJJ59samqam5u7cuUKj8d75ZVXxGLxwsLCzMzMiRMnnn76aZVKxeVyIQmNRqPVau12ey6Xy2azpV5QOp2maTqZTFIU1d7eLpfLA4EAm82uq6t75JFH5HJ5NBo9fPjwtm3bIpHI8PAwj8d75plnHnjggfHxcbfb/fnnn/f29jY3N3+lQiYIQiwWv/DCC01NTXK5fGZm5uLFi0aj8e233xYIBFNTUx6P58qVK9DBo2na7/c3Nzd/+9vfDofDly9fnpqampmZEYvFDocjkUj89V//tUKhyOVyExMTkUgkEAiU9oIXi8Xr16/7fD6z2fzkk0+yWKxIJDI7O9va2trY2PjSSy9pNJqampojR44olcr+/v7Lly8/+OCDL7/8cj6ft9ls/f39hUJh586dNE0TBCGTyV588cXGxkaDwbAxQkc2oA+DoqhEIlkyNsdxXCgUoiiaz+dJkkQQhCRJu93+29/+ViaTcTgcKJFoNFpTU1NfX7+kFwFvAovFkkgk8H2SJGOx2MjIiNfrhVkLi8ViNpvFYrFCoWhtba2pqTGZTBRFXbt2zWq15nI5Ho9nNputVqtcLm9ra+PxeE6nc2JiwmQy7dmzx2AwuN3u119/PRwOR6NRmUxW0rpEIhEKhfF4PBaLQaeltraWpulAIJDJZEKhEEEQLS0tOI4Hg0EMw8RisdFojEajPp+vqampqqoKZjZkMll7e3tNTY1YLO7r6/P5fMvnW24LiqJSqbSnp6e+vh5FUZ/P19LSolKp9uzZw+PxZDLZwMBAOBzOZrMwUufxeHV1db29vdDCWK3WVCpFUVQikcjn8xaLpbW1lSAIhUIBA6fFLWo0Gs1kMnK5/J577pFKpX6/XyKRaLVapVJpNptHRkaMRmNLSwtJklAUDz74YGdnJ0EQLBZrcHBwdnbWbDYXi0Xo1ezcudNgMCx5suvKRszDLIfD4YhEIoFAUBo75nK5a9euXbhwgcViwVRXOp1+7rnnDh8+3NjYeMNREY/Hw3GczWZjGJbJZHw+3+9///vBwUGo8r///e/LZDKFQrFnzx54rpFIhCCIVCrFYrGWDOloms5ms36/3+v1dnZ2ptPpYDCIIIhEIkFRNJFIUBS1JN1UKhWNRgUCQTqdbm1tdbvdPp8vHo/7/f50Ol1XVxePx292+yiK1tXVGQwGjUbD5/NVKpVer/f5fCsoST6fL5fLxWIxh8PBcbyhoUGj0cArhyBIIpFYXMWgKKrX63U6nUgk4nK51dXVgUAAwzA2m43jOJfLDYfDbrcbx/GdO3fy+fxCoZDJZBbfOJfLTaVSXq83m81yOJyHHnqIw+Es/g50L4vFokwmM5vNUqlUIBB0d3dfvnwZxjkURfH5fJlMBnlewS2vmPJofTlCofDAgQOHDh3SarXxePzatWuffvppd3d3U1PTzaYaUqlULpeDGlogEDQ1Nf3VX/1VPB53Op0ffvih0WiEr7lcro8//vjXv/41giDQIvN4vJ6enhte0+Px/MM//AM8fpqmI5FIT0/P9u3b8/l86Ts8Hk+hUBgMBugS+Hy+hoYGoVAYiURSqVQ6naYoSiKR3LqSlkql0FassvkWiUSFQoHP50Mdkcvljh07dvr06ZGREQRBstmsRCJ54IEH4MsoisrlcolEsuQiNTU1UE//7Gc/czqdCoXihRde2L9/f01NTek7GIZt374dQZCTJ0/+6Z/+aSKRMJlMP/zhD1tbWxdLtlgsptPpZDKZzWaha8pmsyUSiVgsLk0Bw6Qkj8db10mk5ayj1jkcjsFgmJ+f93q9+Xwew7DSvcFkBZvNFovFQqEwk8lgGAadDZ1OVygUVCqV1+tNJpPXr1+HxnRxubBYLJjlgD4lj8cTi8UCgcBoNBYKBZFIpNFoeDwedHUGBwc9Hs+ePXs0Gg2GYfF4fGpq6oY1CofD0Wg0HR0dUqm0NEIwGo0mk2nxkABmA9va2vL5fDQaTSaTEokklUqFQiGHw0EQhEgkkkgk0DLconBuNrP+lWCxWHAdaH+mp6fn5ubkcvnjjz/OZrN9Pl8ymVx8sxwOZ3kjieO4VCrdt28f/KRYLHo8nsnJSQzDSv11FEVFIlFzc3OhUKiqqorFYgiCXLx4kc1mw0xa6WscDofL5ZZabHgDSZIsFArL87zK2/9KrKPWcRw3mUwul8vpdC4sLEDTSdM0SZJOp3NyclIul6vVapgqWfxDsVhcV1fX1dVls9kGBgZgmmXxwhCsdGo0mkAgAIM8Ho8HTzSbzYbD4UAgoNPpKIrKZrNjY2PFYvHFF19sbW0tFApjY2O/+c1vlmudxWIJBILa2toHHnigo6NDo9GQJOnxeFAUhSXexV8WCoVNTU1jY2N+v5/NZguFQrlc7nK5QB/QM9n49ZRkMjk5OZlOp7u7u48ePcpisS5dujQ4OLikeG/4QwRBlErlCy+8wGKx/H7/b37zG6/Xq9VqS/1pmqZDoRCGYT09PQcOHIA+5+uvv97Q0KBUKkuXwjBMJBJB1ZBIJORyOUyYZrNZDMM2bBh6Q9axEeFyubW1tVKpNBgMHjt2DNZEocjOnTt3/Pjxtra2xfPNixGJRPfee69SqfR6vbOzs0v6AywWSyQStbe3K5XK119/HfqC8JHb7e7r6/vDH/6wsLCw/LI+n89mszkcjlQqtfjvKIrCXK9YLB4eHvb5fDAb/ctf/vJf/uVfpqenCYJY/H1ol91u9/z8PIy9tFqtWq2empri8/n19fWrLLrVA32JiYmJoaGhxR2wGzI5OXny5Mn3338fxgwoivJ4PJFIBPMH8B2Kos6ePXv8+PFLly7B44DaQSwWL2n0YCUkGAxarVbYGzIwMIBhmFarhR0E63XPt2Md63Uosj179kilUpvN9k//9E9QRgKBQKPRPPXUU93d3YurhP+TLTZboVCYzeZEInH8+HEulysUChdX7SiKmkwmENn169e/+OILkCPUsq+88spdd91VW1srEAja29v7+/t//OMfy2Sy+vp6uVxeU1PD5XLz+bxcLqcoymazvfXWWw8//HBdXR1JkufPn//Xf/3XdDqdyWSqq6u7u7v1ev2Sep3L5apUKj6fLxaLa2pqoPITi8UwJlOr1UtuRyAQIAjyhz/8gSTJ3bt3i8XiNS3p/49EImlvb7969eonn3xy9uxZmK1vbW2NxWIwbXWzH+p0OhRFrVbra6+9RpIkrOvp9XqVSlWqRDAMg8mWY8eOffDBB/l8XiwWd3V11dbWisXifD5fKBTgvXrwwQctFgtFUadPnz59+jSCICiK3nvvvd3d3bfdpLSurK/WWSxWQ0ODSCQiSTIYDMZiMQzDeDyeyWQ6ePCgQqFgs9m5XE4kEm3btg1kCo8ERVEul2s2m6HXwWKxls/Bq1QqsVis1+uPHTsG8/QIgmi1WpPJ9Oijj6rVamgxOjs7Y7GYx+OBifCmpiboI0Gv2mw2czgcWLqvrq7m8XiBQODy5cuBQABBkO7u7l27di3XLtTrbW1tBoPBaDRCTVZTU9Pd3d3Y2AiT2TDVCPUchmFGo7Gurg7WIJVKZUtLi1qthqlYqVRqNBqlUin8cDlwEZgNFIvFUEQYhkml0oaGBphPhKapoaGhvb2dIAhY2jSbzbAUIJFIRCJRS0uLXC6HdTcMw3Q6XT6fV6vVNTU1fD7f4XCMjIwkEgmJRGIymWprayUSST6fb2lpgR17TU1NyWRybm7ObrcTBKFUKru7u6uqqgQCAUVRbW1tCwsLFEVxOByz2czlcv1+v8vlgjdnx44dDQ0NKIrKZLKmpiaSJDe+P3P7c79QFP3Hf/xH5nwYhs3Pj370I6vVeuzYsRtO2zP71xkqBUbrDJUCo3WGSoHROkOlwGidoVJgtM5QKTBaZ6gUGK0zVAqM1hkqBUbrDJUCo3WGSoHROkOlwGidoVJgtM5QKTBaZ6gUGK0zVAqM1hkqBUbrDJUCo3WGSoHROkOlwGidoVJgtM5QKTBaZ6gUGK0zVAqM1hkqBUbrDJUCo3WGSuFOzy6lKIogiC+++AIcnuRy+ZKja9eEfD5/6dIlgiDUanVLS8vNTOGSyeSlS5dCoZBcLu/t7eVyuTc8/TUQCFy6dEmn0y1320skEnNzcwMDA/v3729oaLi16++KmZ+fv3r1qlQqra+vX3wgP4Ig0Wh0eHj4zJkz4NgIf4TTTx988MEbHt9utVqj0ajBYKiurr6tzRBFUdFotL+//+LFi8FgsFgs1tTU7N69+6677tJoNLf+LZjLDg0Neb3e3bt3q9XqxadOfyVisdjMzMzIyMiBAwdu66683txpvQ7uCGNjYzabLZFIlDwS1haKomZmZsbHx51O582SAGP1oaGhgYGBq1ev3iIzyWTSZrMtLCyUHNxLgLP7+fPnwfNjjW/jS8LhsM1mm56eBjOwxWQymenpafDoC4VCyWQymUzOzs6Ojo6Oj4/D4f9LAC+DQCAAbmq3ACy5+/r6bDZbMBhMJBLgKjo6Omq1WuE03VufWUuS5MzMzJUrVyKRyGrKJ5vNzs/P9/X1BYPBddLMnbPyM6mLxSKUV+kf2JfQNE3TdLFYBANYmqbhfGqwhKW/BFxESv+FS1FfUvrhknSTyaTH44lEIrlcLp/PBwIBPp+/ykYGcrv4HyiKlkxvStkr3RSGYVDvlv4ClEoDCqF0O8ViEfzfFifK5XINBsP3vve9rq4uOIf+k08+GRkZOXnyJBhWrvh2wFPy17/+9T333PN3f/d3Op2OxWJNTk5+8MEHJ06cCAQCTz75JI7jcF+lzC8uhFK2C4VCKf9LbnDJsy5ZHZauAxY0AJz6veI7WhNWqPV8Pn/t2rXBwUGJRDIyMnL9+nUEQe65554DBw7s3r07HA6PjIyMjY3pdLorV67MzMxotdonnnhix44dUqnU6XSCDe+hQ4cUCkUikbDZbOFwGKx2PvjgA4fDUVtbS5Lknj17ljT9CIJEo1G/319fX18oFDAMu3jxolAoXM3p/cViMZFI/M///E8qlSII4syZM5lMRqfTHTx4sLe3VygUOhyO0dFRsDLt7+9Xq9W7d+9+8skn4aMrV67I5fLm5ua6urp8Pn/+/PlAILB9+/ZYLHb69On//M//xHH88OHD+Xx++/btt34n9Xq93++/evUquLnfwmD+FuTzeeg7ffOb3+zp6QGXKARBampqHnvssWPHjsXj8fn5eZ1OZ7Va7Xb79u3b4TT6ZDJ54sQJHMfNZvPFixc/+eSTyclJj8fz1FNPaTSa4eHhmpoan89ntVp9Pt/evXvB0jGRSIyPj1+4cOGhhx5qaGjAMGxhYeHatWvZbLa3t/fkyZMnTpwYHBxEUfTRRx998MEHBQJBuewGVpgqTdPBYPDatWs2m42iKJ1OJxaLx8fHh4aGYrEYNMd9fX0TExMcDqe6upokyfHx8cnJyUKhkEgkXC7XzMwM2Nfncjmv1+twOKLRqEQikcvlGo1Go9FIpdLl9jIURYEfWG1t7bZt26qrq+12ezQaXU07CxZOc3NzY2Nj8/PzVVVVKpUqlUqdOnVqbm4uFosFAoFPP/30ypUrBEGAvd7c3NzIyEg8Hk8mk3a73e12J5NJqM88Hg/4wbPZbJlMplQqNRqNUqlc7MdyM0iSpGlaoVCs5hz+dDodCAQCgUBbW1tDQwO4GyAIIhQKGxsbFQpFOp2enp7OZDJ+v39mZiYSiZAkCT6bMzMzCwsLJEmCcaxMJquqqhIKhalUChw5PR6PRqNRq9Ver3dwcBB6X/B+xmIxaAGSyeTCwoLD4aAoCvxlxWKxWq0Gm9uV3dSasCpfDVDJww8/3NXV5XA43njjjZmZGfB/y2QyYD9y9OhRg8Fw4cKF4eFhm83W2tp6s7ZMqVTu2rXLbrcnk8n6+vq9e/eCX8Xi5HK5XCQSicViu3fv1mq1Lpfr888/TyQSmUzmZqYUd06hUKiurv6Lv/iLVCp1/vz5X/3qV06nE7wlJiYm2tra9u7du2fPnv7+/qGhoTNnzmi12lu0yyaTicPhpNPpqqqqHTt2tLW1LS896IMtLCxAB316ejoej3d0dMjl8pXJgqbpVCoFxrxyuXzxEBasuWQyWSgUstvtFovlhlcA7+UDBw5kMhmNRvOtb31Lr9fPzMzQNO3xePbv3//000+nUqnf//73165d6+7uvlmLimGYQCDYu3cvi8UiSfLo0aOdnZ0rHuOuCavSOo7jjY2NWq1WJBLpdDqDwVDyvMVxvKqqateuXeDL3NXVNTExkUgkwuHwiutgmqZjsVg6nWaxWGCsnEwmlUplMpmMRqOr17parW5qahIIBDiO6/V6g8EAzwZMUbq7u8EapampKRqNnjhxAvpdK06OJMmFhYUf//jHCIJAd6W5ubm3t3fPnj2r6azfGvA3XUHXGcMwi8XS3t4ulUrFYnFjY2MymZyfn6+trV2PfK4Hq9I6m82uqqoCBx8cx3EcL00RgGUmtIBgW4dhWKFQyOfzt3WtuRkURXm9XpvN1tfX53K5BAJBPB6/fv06OBDV1dWt5l4QBBGLxVqtFqw34XagZwkeblqtViqVoijK5/N5PF4ulysUCqtplFksllQq3blzp0qlAvMw8D87fvx4b2+v0Whcj1ldNpvNZrNvO5OzHBRFoXcHryXMBxAEsdjRe5OzKq2zWKzFfsSLwTAM7GrB1gt80m5YncBs5m1rGvgadChDodClS5dgEoCiqIWFBafTSRDEzSba7xAcx0Ui0fKqGozK4OIoilIUVSgUCoXC8pcWer132HCBS+vRo0dL8zALCwt9fX1vv/220WjUarUr0zpY6WIYttg+F/lyeiSTyRSLRbFYvKSgYKrkFrMlUAgwgioWi/l8/obVFnRrN+cLsF4+eCRJJpPJRCKRy+UQBIH54xvWgrlcDkzbbn1BMIkeHBw0Go3f+c53mpubcRzP5/OpVOrdd991Op1erxeM7Nb8XorFYiQSicfjJEniOE4QRDKZTKVSS6ZKQOixWAwc+VaAXC6HDmEulyMIYrmZ+m0BVz1wfw8Gg9XV1aX+NFQWc3NzFEV1d3cvKahCoQBD7Zt1qWmaBpNuqLng4S7XOkVR4XA4nU7f0La2vKzX7E8ulwuHw/Pz8/F4PJvNzs3NQU9DLpez2exoNOpwOILBYDweD4fDk5OTN1w9WUw2m/V6vel0WiqVNjU1weSGWq2uqqoSiUSQxBLH3bWiUChMT09PT08Hg0GKojweTygUamxsVCqVOI5DwxIIBLLZrM/nm5qampubW1lCiUQiEolks1mom1d2EbBQbm1tPXXqVH9/fzgchqra7/efPHnS7/eLRKK6ujpojbPZ7NTUFIyC5ubmQqFQNpu94WVpmnY6nR6PhyCIaDQaDAYzmYzBYIDC93q9Xq8XrjM7O7t87WwzsF71Oqwj2O12kiQxDHO73SqVymw2S6XSbDYrFosJgjh16pTRaISZx9IPwWgzFouBIWipWkokEg6HA0x05XI5NMHQsILlrM1ma2hoKNl/rvnt+P3+gYEBq9XqdDpJkty3b59Wq81ms3q9fmho6MKFC6FQiMVipVKpUpUGvbiJiQmhUAhTdYvzRlFUIpG4ePGiy+WC24zH45FIxGw2azSaFTdQGIZVVVVZLBaHwzEzM5PP58H9NJlMOp1OrVbb3NwMXSa1Wi2Tya5evQoup8lksjQCwTCMzWbDTgEEQbLZLE3T6XR6bGwsHo/H4/FAIGAwGMCxFaZWYZFVqVRGo9FS34nNZrNYLIIgxsfHJRJJc3Mzm80ul037V9M6i8UqLY/B2uHifJc+pWlaJBLJ5XKXy/Xhhx96PJ6urq4/+7M/u/vuu3k8Xl1dXVdX1/T09M9+9jONRtPV1WWxWPL5PKzDKZXKmZmZCxcuSKXSQ4cOlbQej8dnZmaqqqoMBkNpKg3m0YxGo8PhuHTp0t69ezUaDYzzbg2sfbLZ7FK3dfGtIV8+bOigczic7du3B4PBd955p6+vr6en5/HHH3/kkUdwHC8UCr29vcPDw++8804ymXz88ce1Wq1Go4GVSIFAIBKJ3njjjfn5eZlMtn///sU9BIqifD7fT3/601JVqtfrv/GNb7z66qs6nW41nTG5XN7V1aXRaN56663XXnvN4XAUCoXW1tZnn30WVnzga+3t7alU6rPPPvvv//5vvV7/3HPPKZVKhUIBpSoUCuPx+BtvvJHP57VaLfSOLly48OmnnyII8r3vfe/o0aO1tbVsNsInF/8AABT1SURBVLtQKBw+fPjnP/+53+83m82HDh1SKpXwzvD5fBzH0+n0hx9+mE6nYR2mXLPsd+rl++qrrxYKBbfbTdM0DJtisVgkEoGVAi6XW/pUrVaHQqEzZ84MDQ098sgjPB6vWCxKJJLa2tqSHX0sFvP5fF6vl8vlSiQSsVhM07RQKIQa2u12Q72uUqlKsk4mkzBzL5PJFArF4hxGo1HoSsL6X6koZ2dn33nnnfb29vb2dpPJtPgnJEnG43Gfz6fT6WAOzu12w+qPUCikaRoWvLRaLUEQU1NTp0+fNhqNXV1dqVRKKpVqtVqdTgeD41wu53A4wuEwRVGgci6Xq1AohEJhPp8Ph8MOh0Mikeh0OpARZIAgiGAw6HQ6s9lsaSTH4/FgQonH4y0XxMcff+xyuTo7O1tbW8F7+hbQNE0QhMfj8Xq9UCuLRKKqqqrq6urS+waF4HA4UqkUj8erqalJp9NCoVCtVnO53HA4HAgE0um0VqtdWFh49913d+7cqdVqYYhiMBig0kFRlCCISCTicDhIkoSHCFsGwPo9Go06nU4EQVQqVU1NzZL6cW25tZfvndbrUL0tntdTqVQqlar039KnpY0fUOPCk1tyNViTM5vNyxNSKpXQwi5BLBbfbNmi5Dt+53C5XLVavdh8vb6+/obX9Pv9KIqy2WytVtvV1bVkRROmIFtbW2+YCofDEQgEBoNh+Uc8Hg/k8pWyfedAxhobGxsbG2/2neWFsBiYZkUQhCRJKASxWNza2rqkoBAEgfekpqbmhte5RRIbzLqMTdlsNiwOcziccnXOEAThcDgymUwgEKxmToDFYkGX9E4W+dcVPp8PM7wbvJ8ERVEcx5VKpUAgWNkWnU3C2mcdwzC1Wn3//ffffffdsLVjzZO4Q6qqqp566ikej7eavq9MJtu+fXtTUxOfzy/vq7tr1658Ps/j8TZ4FzibzW5pafn+978vFArLu8i/StblNeVwOF+1U7EecLnc28Yl3BY2my0SiZbszCkLq9nLuRpgkH0nI/5NDhODx1ApMFpnqBQYrTNUCozWGSoFRusMlQKjdYZKgdE6Q6XAaJ2hUmC0zlAp3Om6aSwWg1Oj/H4/i8WyWCxyuTydTlut1mw2K5fLLRYLi8Xy+XxjY2MIghiNRthaODU1tbCwgCBIR0eHVqstFApWqzUWiwmFQovFwufzI5GI1WotFovV1dXt7e0IgsDGawRBWlpaYHeUzWYLBAJsNrurq0sqlaZSKavVShCEQqGwWCwYhnk8Hjijpq6urqmpCUGQiYkJl8uFIEhnZ6dGoyFJcnR0NB6Pi0Qii8XC4/HC4bDVaqVpuqamBoL85+bmZmdnEQQxm81wLs3o6GgwGORyuRaLRSKRJJNJq9Way+VUKhXE4bvd7vHxcQRBGhoaYK/s+Pi42+1GEGT79u1qtTqXy1mt1mQyKRaLLRYLjuPBYHB0dBRBEJ1OB5vG7Ha73W5HEKS1tVWn0yEIYrVaQ6EQjuMWi0UsFicSCavVSpKkWq3evn07giAul2tiYgJBkMbGRtiMdf36dY/Hg6KoxWJRKpUEQVitVtiVabFYOBxOIBCw2WwIguj1eth1NzMz43A4EARpa2urqakpFotWqzUSifB4PIvFIhKJYrGY1WotFAoajaazsxNBkIWFhampKQRBmpqaYKvftWvXvF4vRF4rFIpsNmu1WiGkprOzk6Iov98PpdrU1NTe3h4MBu12u8/nQxAEYm2DwSAE64hEor1791IU5Xa7p6amisVibW3t3r17Gxoa1mTd+k61ThCE0+kcGhqanZ2F7XtVVVXxePzChQuJRKK6ulomk7HZ7NnZ2XPnzoHCYCcMHIqEIAjs2SdJ8tKlSz6fTyaTwdZFj8dz/vx5iqJMJhPcks1mu3z5MoIgcG4JgiBXrlyZm5vDcRyCHuCkwlQqpdPpIG5jenoa0o3H47DTq3RCE4fDyWazBEEMDAwEAgGFQiGRSIRCocvlOnfuHE3TLS0tsAV0dHQUQhPgsCsEQS5fvjw/P8/n8wUCgVqtDofD/f396XTaYDDAJojJyckvvvgCQZBShOHw8DCoEMfxTCaTyWQGBgZCoZBKpZJIJAKBYGFhAbJqNpth4X10dHR4eBj5MugTQZDBwUGn0ykUCoVCoVKpDAaDfX192WzWaDTCEQPj4+P9/f0IgqTTadgKNjQ0NDU1haIoj8fT6/XpdPrixYuRSESj0UgkEh6P53A4IN22tjbY1gKVFzzffD5fLBYHBwfdbrdYLIbwA7/f39fXl8vl6uvr4ZiGa9euXbx4EUGQTCYDW4OGhoamp6dZLBafz6+pqUkmkxcuXIjFYhBMWCgU7Hb7lStXEASBOnFhYWF4eBjqMplMBofgQRHJ5XK9Xl8oFCYnJwcGBgqFwrZt20wm0/LzsFbGne5ff+WVV3K5XC6XoygKtmizWCwIYaRpmsViwWbXQqEAkaNsNhu0Xorw5XK5bDYbNnzDvl8IAaYoCmJSSz+BuN3STxAEKaULu/xukS6EAi1OF8dxiO8upQtxOqtMFzZgfZ3SLYVFl9KlKAqOZ7rzdCHotpQuBL9DKhBYWIpMRxCEx+NBKvCmYRgGu/QWq4jP5y8Oqbk1a7N/HcMwPp+/fJvbbQ+MXf6T5buIlrRQy3/CpLsx6a5gg9cKsloumLEpQ6XAaJ2hUmC0zlApMFpnqBQYrTNUCozWGSoFRusMlQKjdYZKgdE6Q6XAaJ2hUijPMU5wTvnk5GQsFuNwOHDa2wqOG78hNE0XCgWPx5PL5YxGI/hkrMmVlxOLxZxO58LCAk3TSqWypaVFLBav1dHjFEUFg0GSJOEwutUc+VkoFEKh0PT0dCwW4/F41dXV9fX1AoGgvCeZbTDl0Xo8HrdarT//+c9HR0fFYvFTTz319NNPt7W1rYkoi8ViKpX6/PPPw+Hw888/Dwfvr/6yN0xodnb2vffee++99yiK2rVr1w9/+MO2trYlR6uumFwuNzw8HI1GlUrlvffeuxqtZzKZ4eHhX/7yl6OjoxqN5vDhwy+++OI62dRsWjZa6zRNZzKZwcHB8+fPP/zww9/5zndgp7XVasUwbLlZ3GYGXLxpmn7ttdcwDAsGgx999FEul9uzZ8/mOSULbDC++OKL8fHx++6776WXXoKT7M+ePbt79+6Ojo5yZ3DjKI/WA4FAJBI5cuRIS0tLLBZzuVwul0smkzU3N6/rmcVri9vtjkajVVVV+/btw3F8dHT0/PnzTqezra1t82gdNtm6XK5EItHb22uxWAKBQC6Xm5iYqK6ubmlpKe8hlRvJRo9NwZ4BTmTXaDRisRjsFpLJpNvtht3SG5yllQH+QRiGNTY2ikQiiUSiVqtxHAdfy3Ln7n8pFosEQYAvjdFo5PP5crncaDQGg0G/359Op7dKga+eMszDZDIZiqIEAgGcqA8njBIEEYvFSoFImxyoLOPxOEVRarWaw+Gw2WyIXSoUCiv2BlsPKIpKJpP5fJ7NZkskEgjUAAtOgiAqSusb3YcpFouxWCybzYI9C8DhcGDyZEsIHfnSUw6MgaAPAKY0HA6nFEe3SQCtQ6ge9A9L/ygWi1ulwNeEMtTrS3w3tyIQWrYlbgQqkS1Uj6wfG611FEXlcvlmOM58NUAwJXhFlTsvtwH8lkUi0Xo4v24tyqB1sO+CMwUgrjYcDnO5XKlUusSNaNMCWpdKpWw2OxwOQ8WZzWbD4TB0i8udwf8FtA7mbeA/TJIkTA/gOM7n87dEga8JZdC6QCDAMCyZTELHPZ1Oz8/Pw2EYqzRZ3zBQFGWxWHB8BXjZZTKZWCyWTCaFQuFarSWtCSwWSyAQgD2lz+fL5XKpVMrv9wuFQrlcXnYTqI2kDFoXCoUcDieTybhcrmAwGAqFJicnZTJZbW3tVqnXAdD01NQU2CP6fD4URRUKxQ19/MoFHHAiEokoioI9Aj6fz2636/V6nU5XUdsENnoeBur1Xbt2IQhy/Pjx119/ncvlms3mrq6uG1pAbma2bdtGkqTX6/3bv/1bmqb1ev3jjz/e1dW1qQy0QOt33303juOffvrpu+++KxAITCbT4cOHW1payp27DaUM+2HYbLbBYEBRNJVKOZ1OHo+3Y8eOpqYm6BJsIeRyeUtLSzqdBr/iurq6u+66q+R2u0mA+VC9Xk+SZCQSAT/4bdu2mc3mzeDftpGU56kIBILm5ubm5uaypL6G6PV6vV7/yCOPlDsjtwHH8dbW1pt5DlcIW2AgyMCwJmyi1natAHvynp6ebDYL85vlztEK4XA4ZrM5m83CmYblzs6W52tYgnAE5tdgtyqHw4FzrhnWBKYPw1ApMFpnqBTKHG8ajUY5HE5tbe3axpvm83mPx0OS5HrHm0Jy2WzW5/OlUqnGxkbYqLwmV17DeNNSVoPBYDKZpGnaYDDAkeqVw9cz3jSdTp89e3a9400BiOM+deqU3W7/wQ9+UFNTs1ZaX8N4U+TLDY9WqxXsWZ599lmNRrMm+dwqlC3e9Ny5cw8//PAf//EfEwQxMjIyMjKy5eJNEQRJp9MLCwtvvvnm7OysVqvdzHEPoVBoZGTk9ddfLxQKBw4cKHd2ykDZ4k1jsVhHR0cp3tTtdsvl8q0VbxqJRK5fvz4wMEAQBJiulDtHN8Vut09MTFy9ehXDsM2/D3mdKFu8qVgsLsWbmkymLRdvinyp9cHBwa6urm3btvF4vE37ls7NzV2/fj2VSt199909PT3lzk55KEN//dbxpltlWy+CIAaD4Yknnjh48CBBEOfPn49EIuXO0U3ZtWtXR0dHPp8fHR11OBybP5xqPWDiTVcOjuM4jstkMrfbvclXZ8Fes1gsTk5ObtrGZ71h4k0ZKgUm3pShUihbvGk2m9268aYMW5GyxZumUqloNArxpg6HQygUarXaLTQwZdhylDneNBAIBIPBqakpmUxmMBiYep1h/ShbvCmKoh9//PEbb7xRijet8KgZhvWmnPGmyWTS5XKV4k2lUunGZ2b1wEpkR0dHdXU1nBhT7hzdFBRFofEsFoub5yThDYOJN10tGIYpFIq9e/eWOyO3B0VRk8lkMpnKnZHywAwEGSqFzdvgrpivWbwpQRBMvOma8DUsQSbelOGGMH0YhkqB0TpDpVDmPozP54vH4zweT61Wr9UsWCneNJfL1dXVrWu8aTQadTqd8/Pz4G9qNpslEska+psGAgGSJHEcX9t402KxWFtby8SbbhBgTTE0NDQ2NqbT6fbv319bW7smV96weFPwN33//ffff/99iqJ27ty55v6mIyMjaxtvOjIyMjU1RdM0E2+6cSQSibNnz7733nvBYPBb3/pWubKxGkr+pj/5yU9YLFYgEPjd73632fxNS0C86RtvvMHEm24cFEUtLCxcu3YNKhiZTLZF98C4XK5YLFZVVXX33XdzuVybzQb+pq2trZtN63a7fXx8fGxsDMOwTWX7sZGUR+sOh2NoaEgmk1ksFrBl2/hsrBKapmOxGIZh9fX1QqGQz+erVKqSv2lNTU25M/h/mJubm5iYgHjTrRX8tYaUQescDmfnzp2tra0sFqu/v39mZmbj87BKisViPp+/ob8p/L3cGVwKxJvC+TBMvOnGAeEaEJq0qSwo7pxb+JvCELDcGVxKKd50Mx92sN58DddNNwCapsG6umL7A1sRRusrAcMwLperUChyuVy588JwpzDrpithC/mbMpRgtL4StpC/KUMJRusrp+RvGgqFfD6f1+uFuI1N5W/KUILpr6+ckr/p3/zN38CJ5pvQ35ShRJm1bjQauVwuzIiVNycrAPxNM5kMn8+nabqurm7Xrl2bzd90MRBviuM4nKdZ7uxsNGV+KmazecvZVS8G/E2PHDlS7ozcEUy8KQNDRbBJW9vVAPGmO3bsYOJNGRbzNSxBiDfdtm1buTOyWph407WF6cMwVAqM1hkqBUbrDJVCmfvrFEUVi0VYcl/DvaYQzIogyMa46kFyNE2z2ey1TQ4uC+WzhhdENqpkNhVl1vrIyIjdblcoFJ2dnWsV6lssFjOZTH9/fyKR+MY3viESidZ1EoOiqFAodPnyZY/Hc+TIEaVSuVah3LlcbnR0NJlMSiSS7du3r/6yNE3bbDan00lR1IEDB2A/T+VQNq1ns9mpqalPPvlkfn7+3nvvXcNzTOHMDK/XGw6H13uLeS6XC4fDn3322fDwME3T9913n1wuX6uLw1sUjUbz+fzq7yKZTDqdzo8++igSiZhMJpIk1ySTW4gy9NfB4tTpdJ49e/aLL76YmJjYohEPJEn6/f6RkZFPP/302rVrm9mcNZ1Oz8/P9/X1ffbZZ+Pj4+XOTnkoQ72ez+evXLly9uxZDMN6enq4XO4WXe5xuVyfffbZyZMn9+zZE4lESJLctAY4g4ODV65c8Xq9Bw4cWKujmrYcZdA6i8XS6/X79u3j8/nT09OhUGiLDpKkUun27dv5fL5OpxsdHfV4POXO0U0xGAzgxxaJRMLh8BZtSFdJebTe2NjY2NiIIEgqlQqFQhufhzVBqVQqlcru7m632z01NVXu7NyKpqampqamYrF49uzZWCxWmVrfpG0uA8Oaw2idoVJgtM5QKTBaZ6gUGK0zVAqM1hkqhTLvhxEIBDKZTCwWb924GxRF2Wy2VCpVKpVwtmO5c3Qr+Hy+RCKhKGqLrt+thjIrrLu7u62tDQ65LW9OVgyGYRqN5tChQyRJyuXyzfzSYhjW2dlpNptpmq7Aw8nK/GCEQqFQKCxvHlYJiqIcDmer7Bn8GhT4itm8ldBqYLPZWq2Wz+dzudxN3qm4BXCKGIfDkUqlm3anzRbia6h1FoslEonuu+8+mqa3tNZxHN+xYwfEamzmrtFW4etZgiiKrpP33UbCSHxtYVpGhkqB0TpDpcBonaFSYLTOUCkwWmeoFBitM1QKjNYZKgVG6wyVAqN1hkqB0TpDpcBonaFSYLTOUCkwWmeoFBitM1QKjNYZKgVG6wyVAqN1hkqB0TpDpcBonaFSYLTOUCkwWmeoFBitM1QKjNYZKgVG6wyVAqN1hkqB0TpDpXBHR6h9/PHHPp9vvbPCwLBKzp07J5VKb/bp7bXe29tL0/Tly5fXNFcMDGuPSCTq7Oy8mY0CStP0rX+fSCTWIVcMDOsCm83m8/k3PJz59lpnYPh6wIxNGSoFRusMlcL/AzMOSpRHutnDAAAAAElFTkSuQmCC;" vertex="1" parent="1">
                    <mxGeometry x="440" y="160" width="166.78" height="142" as="geometry"/>
                </mxCell>
            </root>
        </mxGraphModel>
    </diagram>
</mxfile>